<svg id="visual" viewBox="0 0 900 600" width="900" height="600" xmlns="http://www.w3.org/2000/svg" xmlns:xlink="http://www.w3.org/1999/xlink" version="1.1"><rect x="0" y="0" width="900" height="600" fill="#001220"></rect><path d="M0 382L21.5 379.2C43 376.3 86 370.7 128.8 381.2C171.7 391.7 214.3 418.3 257.2 424C300 429.7 343 414.3 385.8 414.5C428.7 414.7 471.3 430.3 514.2 431.2C557 432 600 418 642.8 412C685.7 406 728.3 408 771.2 412.2C814 416.3 857 422.7 878.5 425.8L900 429L900 601L878.5 601C857 601 814 601 771.2 601C728.3 601 685.7 601 642.8 601C600 601 557 601 514.2 601C471.3 601 428.7 601 385.8 601C343 601 300 601 257.2 601C214.3 601 171.7 601 128.8 601C86 601 43 601 21.5 601L0 601Z" fill="#fa7268"></path><path d="M0 396L21.5 397.2C43 398.3 86 400.7 128.8 413.2C171.7 425.7 214.3 448.3 257.2 455.5C300 462.7 343 454.3 385.8 448.2C428.7 442 471.3 438 514.2 443.2C557 448.3 600 462.7 642.8 468.8C685.7 475 728.3 473 771.2 470C814 467 857 463 878.5 461L900 459L900 601L878.5 601C857 601 814 601 771.2 601C728.3 601 685.7 601 642.8 601C600 601 557 601 514.2 601C471.3 601 428.7 601 385.8 601C343 601 300 601 257.2 601C214.3 601 171.7 601 128.8 601C86 601 43 601 21.5 601L0 601Z" fill="#ef5f67"></path><path d="M0 497L21.5 489C43 481 86 465 128.8 464.7C171.7 464.3 214.3 479.7 257.2 488C300 496.3 343 497.7 385.8 489.7C428.7 481.7 471.3 464.3 514.2 461.5C557 458.7 600 470.3 642.8 479.7C685.7 489 728.3 496 771.2 500.2C814 504.3 857 505.7 878.5 506.3L900 507L900 601L878.5 601C857 601 814 601 771.2 601C728.3 601 685.7 601 642.8 601C600 601 557 601 514.2 601C471.3 601 428.7 601 385.8 601C343 601 300 601 257.2 601C214.3 601 171.7 601 128.8 601C86 601 43 601 21.5 601L0 601Z" fill="#e34c67"></path><path d="M0 523L21.5 524.5C43 526 86 529 128.8 529.5C171.7 530 214.3 528 257.2 522.7C300 517.3 343 508.7 385.8 508.3C428.7 508 471.3 516 514.2 513.7C557 511.3 600 498.7 642.8 492.7C685.7 486.7 728.3 487.3 771.2 486.5C814 485.7 857 483.3 878.5 482.2L900 481L900 601L878.5 601C857 601 814 601 771.2 601C728.3 601 685.7 601 642.8 601C600 601 557 601 514.2 601C471.3 601 428.7 601 385.8 601C343 601 300 601 257.2 601C214.3 601 171.7 601 128.8 601C86 601 43 601 21.5 601L0 601Z" fill="#d53867"></path><path d="M0 525L21.5 525.7C43 526.3 86 527.7 128.8 529.3C171.7 531 214.3 533 257.2 533.8C300 534.7 343 534.3 385.8 539.7C428.7 545 471.3 556 514.2 556C557 556 600 545 642.8 538.3C685.7 531.7 728.3 529.3 771.2 533.7C814 538 857 549 878.5 554.5L900 560L900 601L878.5 601C857 601 814 601 771.2 601C728.3 601 685.7 601 642.8 601C600 601 557 601 514.2 601C471.3 601 428.7 601 385.8 601C343 601 300 601 257.2 601C214.3 601 171.7 601 128.8 601C86 601 43 601 21.5 601L0 601Z" fill="#c62368"></path></svg>